<?xml version="1.0" encoding="UTF-8"?>
<svg xmlns="http://www.w3.org/2000/svg" xmlns:xlink="http://www.w3.org/1999/xlink" viewBox="0 0 60 60" width="60px" height="60px">
<g id="surface47485500">
<path style="fill-rule:nonzero;fill:rgb(0%,0%,0%);fill-opacity:1;stroke-width:10;stroke-linecap:butt;stroke-linejoin:round;stroke:rgb(80.000001%,80.000001%,80.000001%);stroke-opacity:1;stroke-miterlimit:10;" d="M 44.192068 24.613545 L 86.000003 66.421479 L 127.807937 24.613545 C 130.054653 22.366829 133.680305 22.366829 135.915134 24.613545 L 147.386461 36.084872 C 149.633176 38.3197 149.633176 41.945353 147.386461 44.192068 L 105.578526 86.000003 L 147.386461 127.807937 C 149.633176 130.054653 149.633176 133.680305 147.386461 135.915134 L 135.915134 147.386461 C 133.680305 149.633176 130.054653 149.633176 127.807937 147.386461 L 86.000003 105.578526 L 44.192068 147.386461 C 41.945353 149.633176 38.3197 149.633176 36.084872 147.386461 L 24.613545 135.915134 C 22.366829 133.680305 22.366829 130.054653 24.613545 127.807937 L 66.421479 86.000003 L 24.613545 44.192068 C 22.366829 41.945353 22.366829 38.3197 24.613545 36.084872 L 36.084872 24.613545 C 37.202286 23.49613 38.664434 22.937423 40.13847 22.937423 C 41.600618 22.937423 43.062767 23.49613 44.192068 24.613545 Z M 44.192068 24.613545 " transform="matrix(0.328605,0,0,0.328605,1.74,1.74)"/>
<path style=" stroke:none;fill-rule:nonzero;fill:rgb(58.431375%,64.705884%,65.098041%);fill-opacity:1;" d="M 14.929688 9.277344 C 14.445312 9.277344 13.964844 9.460938 13.597656 9.828125 L 9.828125 13.597656 C 9.089844 14.332031 9.089844 15.523438 9.828125 16.261719 L 23.566406 30 L 9.828125 43.738281 C 9.089844 44.476562 9.089844 45.667969 9.828125 46.402344 L 13.597656 50.171875 C 14.332031 50.910156 15.523438 50.910156 16.261719 50.171875 L 30 36.433594 L 43.738281 50.171875 C 44.476562 50.910156 45.667969 50.910156 46.402344 50.171875 L 50.171875 46.402344 C 50.910156 45.667969 50.910156 44.476562 50.171875 43.738281 L 36.433594 30 L 50.171875 16.261719 C 50.910156 15.523438 50.910156 14.332031 50.171875 13.597656 L 46.402344 9.828125 C 45.667969 9.089844 44.476562 9.089844 43.738281 9.828125 L 30 23.566406 L 16.261719 9.828125 C 15.890625 9.460938 15.410156 9.277344 14.929688 9.277344 Z M 14.929688 9.277344 "/>
</g>
</svg>
